<?xml version="1.0" encoding="utf-8"?>
<!-- Generator: Adobe Illustrator 24.0.2, SVG Export Plug-In . SVG Version: 6.00 Build 0)  -->
<svg version="1.1" id="Capa_2" xmlns="http://www.w3.org/2000/svg" xmlns:xlink="http://www.w3.org/1999/xlink" x="0px" y="0px"
	 viewBox="0 0 150 150" style="enable-background:new 0 0 150 150;" xml:space="preserve">
<style type="text/css">
	.st0{fill:#0F0F20;stroke:#AAA6CA;stroke-miterlimit:10;}
	.st1{fill:#AAA6CA;}
	.st2{fill:#32314E;}
</style>
<g>
	<g>
		<path class="st0" d="M147.5,75c0,20.02-8.11,38.15-21.23,51.27S95.02,147.5,75,147.5s-38.15-8.11-51.27-21.23S2.5,95.02,2.5,75
			s8.11-38.15,21.23-51.27S54.98,2.5,75,2.5s38.15,8.11,51.27,21.23S147.5,54.98,147.5,75z"/>
		<path class="st0" d="M143.5,75c0,18.92-7.67,36.04-20.06,48.44S93.92,143.5,75,143.5s-36.04-7.67-48.44-20.06S6.5,93.92,6.5,75
			s7.67-36.04,20.06-48.44S56.08,6.5,75,6.5s36.04,7.67,48.44,20.06S143.5,56.08,143.5,75z"/>
	</g>
	<g id="Z_Izquierda">
		<path class="st1" d="M17.18,111.6c7.08-10.61,18.13-27.51,27.41-41.76S61.37,44,61.37,44h-9.16h-9.16c-4,0-6.47,0.28-8.24,1.03
			c-1.76,0.75-2.82,1.97-3.99,3.86c-0.67,1-1.39,2.36-2.14,3.99c-0.75,1.63-1.53,3.51-2.31,5.57l-2.11-0.06l-2.11-0.06
			c0.33-3.39,0.78-7.75,1.18-11.88S24.1,38.44,24.27,36h1.79h1.79c0.72,1.44,1.5,2.19,2.55,2.58S32.77,39,34.57,39h23.38h23.38
			l0.41,0.92l0.41,0.92L49.66,76.22L17.18,111.6z"/>
	</g>
	<g id="Z_Derecha">
		<path class="st2" d="M87.86,94.95c-0.65,2.86-1.3,6.35-1.88,9.51s-1.1,6-1.5,7.53H53.33H22.19l-0.41-1.28l-0.41-1.28l32.48-35.38
			l32.48-35.38c0,0-0.33,0.51-0.95,1.45s-1.51,2.31-2.63,4.03c-4.11,6.32-11.27,17.34-18.83,29.04s-15.51,24.08-21.21,33.1
			c1.91,0.17,3.71,0.26,5.95,0.3s4.9,0.04,8.56,0.04c6.9,0,10.9-0.09,13.6-0.57c2.7-0.48,4.09-1.35,5.77-2.91
			c1.39-1.28,2.55-2.82,3.66-4.77c1.11-1.95,2.18-4.31,3.4-7.21l0.28-0.67l0.28-0.67c1.24,0.29,2.29,0.94,2.96,1.83
			C87.85,92.59,88.15,93.72,87.86,94.95z"/>
	</g>
	<g id="A_Derecha">
		<path class="st1" d="M86,114v-2.17v-2.17c3.66-0.52,5.49-1.1,6.2-2.18s0.3-2.64-0.51-5.14c-0.58-1.74-1.34-3.92-2.16-6.24
			s-1.73-4.79-2.6-7.11l-16.71-0.04l-16.71-0.04l14.54-22.46L82.59,44l2.78-0.01l2.78-0.01c3.28,9.1,6.25,17.99,9.28,26.8
			c3.02,8.82,6.09,17.56,9.56,26.38c2.17,5.4,3.52,8.31,5.28,9.98s3.93,2.11,7.74,2.57v2.15V114h-17H86z M75.98,58.41l-8.06,12.3
			L59.86,83h12.52h12.52l-4.47-12.3L75.98,58.41z"/>
	</g>
	<g id="Izquierda_1_">
		<path class="st2" d="M86.47,39h16.74h16.74c1.8,0,3.12-0.03,4.17-0.42s1.83-1.14,2.55-2.58h1.79h1.79
			c0.17,2.44,0.53,6.33,0.93,10.46c0.4,4.13,0.85,8.49,1.18,11.88l-2.11,0.06l-2.11,0.06c-0.78-2.06-1.56-3.94-2.31-5.57
			c-0.75-1.63-1.47-2.99-2.14-3.99c-1.17-1.89-2.22-3.11-3.99-3.86S115.47,44,111.47,44h-9.38h-9.38l-4.76,0.02l-4.76,0.02
			l1.64-2.52L86.47,39z"/>
	</g>
</g>
</svg>
